HIERARCHY
ROOT SpineBase
{
  OFFSET 0.000000 0.000000 0.000000
  CHANNELS 6 Xposition Yposition Zposition Zrotation Xrotation Yrotation
  JOINT SpineMid
  {
    OFFSET 0.000000 21.176571 0.000000
    CHANNELS 3 Zrotation Xrotation Yrotation
    JOINT SpineShoulder
    {
      OFFSET 0.083538 15.707959 -0.542945
      CHANNELS 3 Zrotation Xrotation Yrotation
      JOINT Neck
      {
        OFFSET 0.066140 5.194410 -0.418539
        CHANNELS 3 Zrotation Xrotation Yrotation
        JOINT Head
        {
          OFFSET 0.335621 9.277549 -1.838509
          CHANNELS 3 Zrotation Xrotation Yrotation
          End Site
          {
            OFFSET 0 0 0
          }
        }
      }
      JOINT ShoulderLeft
      {
        OFFSET -5.972271 -5.072833 -5.762744
        CHANNELS 3 Zrotation Xrotation Yrotation
        JOINT ElbowLeft
        {
          OFFSET -3.210286 -15.197991 -7.149110
          CHANNELS 3 Zrotation Xrotation Yrotation
          JOINT WristLeft
          {
            OFFSET 1.577586 -20.033617 2.192718
            CHANNELS 3 Zrotation Xrotation Yrotation
            JOINT HandLeft
            {
              OFFSET 2.560425 -5.116869 -0.673470
              CHANNELS 3 Zrotation Xrotation Yrotation
              JOINT HandTipLeft
              {
                OFFSET 0.047126 -1.385721 0.366752
                CHANNELS 3 Zrotation Xrotation Yrotation
                End Site
                {
                  OFFSET 0 0 0
                }
              }
              JOINT ThumbLeft
              {
                OFFSET 0.067400 0.737131 -2.534782
                CHANNELS 3 Zrotation Xrotation Yrotation
                End Site
                {
                  OFFSET 0 0 0
                }
              }
            }
          }
        }
      }
      JOINT ShoulderRight
      {
        OFFSET 11.018231 -1.459769 12.116126
        CHANNELS 3 Zrotation Xrotation Yrotation
        JOINT ElbowRight
        {
          OFFSET -3.513620 11.854588 -14.990870
          CHANNELS 3 Zrotation Xrotation Yrotation
          JOINT WristRight
          {
            OFFSET -2.863450 16.771519 -6.273934
            CHANNELS 3 Zrotation Xrotation Yrotation
            JOINT HandRight
            {
              OFFSET 1.925083 1.421967 1.372338
              CHANNELS 3 Zrotation Xrotation Yrotation
              JOINT HandTipRight
              {
                OFFSET 0.434825 4.462623 2.522562
                CHANNELS 3 Zrotation Xrotation Yrotation
                End Site
                {
                  OFFSET 0 0 0
                }
              }
              JOINT ThumbRight
              {
                OFFSET -1.539247 0.219551 -1.067288
                CHANNELS 3 Zrotation Xrotation Yrotation
                End Site
                {
                  OFFSET 0 0 0
                }
              }
            }
          }
        }
      }
    }
  }
  JOINT HipLeft
  {
    OFFSET -3.264704 1.723369 -1.665517
    CHANNELS 3 Zrotation Xrotation Yrotation
    JOINT KneeLeft
    {
      OFFSET 1.160936 -41.717837 5.464458
      CHANNELS 3 Zrotation Xrotation Yrotation
      JOINT AnkleLeft
      {
        OFFSET 7.465802 -38.470401 7.242732
        CHANNELS 3 Zrotation Xrotation Yrotation
        JOINT FootLeft
        {
          OFFSET 6.492066 -2.482283 1.567923
          CHANNELS 3 Zrotation Xrotation Yrotation
          End Site
          {
            OFFSET 0 0 0
          }
        }
      }
    }
  }
  JOINT HipRight
  {
    OFFSET 3.987656 -0.746272 -3.842074
    CHANNELS 3 Zrotation Xrotation Yrotation
    JOINT KneeRight
    {
      OFFSET -0.515053 -41.313727 5.845557
      CHANNELS 3 Zrotation Xrotation Yrotation
      JOINT AnkleRight
      {
        OFFSET 7.096420 -38.115115 8.963320
        CHANNELS 3 Zrotation Xrotation Yrotation
        JOINT FootRight
        {
          OFFSET 7.455401 -2.963797 -9.333815
          CHANNELS 3 Zrotation Xrotation Yrotation
          End Site
          {
            OFFSET 0 0 0
          }
        }
      }
    }
  }
}
MOTION
Frames: 12
Frame Time: 0.033333
-41.755898 85.454815 340.155348 -0.000000 0.000000 16.705399 -0.000000 0.000000 -16.705399 -0.000000 0.000000 0.000000 -0.000000 0.000000 0.000000 0.000000 0.000000 0.000000 -0.000000 0.000000 0.000000 -0.000000 0.000000 0.000000 -0.000000 0.000000 0.000000 -0.000000 0.000000 0.000000 0.000000 0.000000 0.000000 0.000000 0.000000 0.000000 -0.000000 0.000000 0.000000 -0.000000 0.000000 0.000000 -0.000000 0.000000 0.000000 -0.000000 0.000000 0.000000 0.000000 0.000000 0.000000 0.000000 0.000000 0.000000 -0.000000 0.000000 -16.705399 -0.000000 0.000000 0.000000 -0.000000 0.000000 0.000000 0.000000 0.000000 0.000000 -0.000000 0.000000 -16.705399 -0.000000 0.000000 0.000000 -0.000000 0.000000 0.000000 0.000000 0.000000 0.000000
-41.685799 85.600864 340.163007 -0.196580 0.073038 16.885737 0.166890 -0.126988 -16.885426 -0.000000 0.000000 0.000000 -3.513616 3.891682 -0.721981 0.000000 0.000000 0.000000 -0.000000 0.000000 0.000000 -0.000000 0.000000 0.000000 -0.000000 0.000000 0.000000 -0.000000 0.000000 0.000000 0.000000 0.000000 0.000000 0.000000 0.000000 0.000000 -1.418104 2.794328 -0.963633 5.057069 -3.373128 2.438710 -1.924014 -2.444039 1.601035 -4.830775 3.715127 -0.699370 0.000000 0.000000 0.000000 0.000000 0.000000 0.000000 0.166890 -0.126988 -16.885426 -0.000000 0.000000 0.000000 -2.019636 2.354798 5.230825 0.000000 0.000000 0.000000 0.166890 -0.126988 -16.885426 -0.000000 0.000000 0.000000 -0.736620 -2.436500 -4.170805 0.000000 0.000000 0.000000
-41.466868 85.827256 340.186174 -0.371297 0.154365 16.021080 0.314276 -0.250841 -16.019892 -0.000000 0.000000 0.000000 -5.838495 6.529264 -1.071242 0.000000 0.000000 0.000000 -0.000000 0.000000 0.000000 -0.000000 0.000000 0.000000 -0.000000 0.000000 0.000000 -0.000000 0.000000 0.000000 0.000000 0.000000 0.000000 0.000000 0.000000 0.000000 -2.251211 4.486122 -1.512267 8.738665 -5.385899 4.366749 -3.246386 -3.341722 1.485822 -9.275580 5.868677 0.749636 0.000000 0.000000 0.000000 0.000000 0.000000 0.000000 0.314276 -0.250841 -16.019892 -0.000000 0.000000 0.000000 -3.990764 4.778904 11.463440 0.000000 0.000000 0.000000 0.314276 -0.250841 -16.019892 -0.000000 0.000000 0.000000 -2.585168 -5.741434 -8.188405 0.000000 0.000000 0.000000
-41.099107 86.133991 340.224848 -0.523555 0.243493 14.095192 0.448502 -0.363655 -14.092656 -0.000000 0.000000 0.000000 -7.346458 8.275953 -1.240366 0.000000 0.000000 0.000000 -0.000000 0.000000 0.000000 -0.000000 0.000000 0.000000 -0.000000 0.000000 0.000000 -0.000000 0.000000 0.000000 0.000000 0.000000 0.000000 0.000000 0.000000 0.000000 -2.640227 5.286290 -1.764408 10.984688 -6.400108 5.554538 -3.531063 -3.765056 0.691071 -13.412610 7.292795 2.959407 0.000000 0.000000 0.000000 0.000000 0.000000 0.000000 0.448502 -0.363655 -14.092656 -0.000000 0.000000 0.000000 -5.902883 7.177601 18.533891 0.000000 0.000000 0.000000 0.448502 -0.363655 -14.092656 -0.000000 0.000000 0.000000 -6.234038 -10.256806 -11.638346 0.000000 0.000000 0.000000
-40.582514 86.521069 340.279029 -0.652982 0.339866 11.087394 0.575455 -0.459073 -11.083152 -0.000000 0.000000 0.000000 -8.248271 9.356510 -1.318335 0.000000 0.000000 0.000000 -0.000000 0.000000 0.000000 -0.000000 0.000000 0.000000 -0.000000 0.000000 0.000000 -0.000000 0.000000 0.000000 0.000000 0.000000 0.000000 0.000000 0.000000 0.000000 -2.656039 5.314043 -1.776178 11.745128 -6.630944 5.886217 -2.487665 -4.086711 -0.534085 -17.108789 8.269494 5.391318 0.000000 0.000000 0.000000 0.000000 0.000000 0.000000 1.045507 -1.525557 -11.014438 -0.665218 0.956969 -0.055017 -7.708144 9.447613 26.139409 0.000000 0.000000 0.000000 0.575455 -0.459073 -11.083152 -0.000000 0.000000 0.000000 -12.740570 -16.591290 -13.799245 0.000000 0.000000 0.000000
-39.917090 86.988491 340.348718 -0.759437 0.442875 6.992729 0.109912 0.124948 -7.014735 0.665814 -0.579971 0.029464 -8.661849 9.902937 -1.346425 0.000000 0.000000 0.000000 -0.000000 0.000000 0.000000 -0.000000 0.000000 0.000000 -0.000000 0.000000 0.000000 -0.000000 0.000000 0.000000 0.000000 0.000000 0.000000 0.000000 0.000000 0.000000 -2.322856 4.618154 -1.563627 10.981217 -6.152141 5.327176 0.173453 -4.477571 -2.234076 -20.293553 8.900986 7.841185 0.000000 0.000000 0.000000 0.000000 0.000000 0.000000 1.329848 -2.116274 -6.906638 -0.816113 1.496873 -0.054687 -9.328667 11.506974 33.878757 0.000000 0.000000 0.000000 0.699902 -0.531999 -6.986545 -0.000000 0.000000 0.000000 -23.318362 -25.739931 -13.367736 0.000000 0.000000 0.000000
-38.850260 87.750421 340.484137 -0.918719 0.584920 1.639781 0.124071 0.166825 -1.664953 0.195322 0.005077 -0.025414 -7.767255 9.185798 -1.362542 0.000000 0.000000 0.000000 0.604895 -0.759593 0.062392 -0.000000 0.000000 0.000000 -0.000000 0.000000 0.000000 -0.000000 0.000000 0.000000 0.000000 0.000000 0.000000 0.000000 0.000000 0.000000 -1.289480 3.122548 -1.198297 9.041921 -4.019183 4.392260 3.553601 -6.376195 -3.795991 -19.824001 14.169080 7.615531 0.000000 0.000000 0.000000 0.000000 0.000000 0.000000 1.880379 -2.845200 -1.525995 -1.038574 2.207016 -0.054764 -10.345691 14.143407 44.257211 0.000000 0.000000 0.000000 0.901656 -0.610895 -1.630285 -0.000000 0.000000 0.000000 -41.320252 -43.063458 -4.447096 0.000000 0.000000 0.000000
-37.681781 88.500948 340.582224 -1.016923 0.744194 -3.568315 0.097884 0.197636 3.540832 0.145956 0.035973 -0.035960 -6.657978 8.420175 -1.266750 0.000000 0.000000 0.000000 0.762167 -0.970270 0.080173 -0.000000 0.000000 0.000000 -0.000000 0.000000 0.000000 -0.000000 0.000000 0.000000 0.000000 0.000000 0.000000 0.000000 0.000000 0.000000 0.762167 -0.970270 0.080173 1.686841 -0.797383 0.504078 22.481909 -11.018631 -9.977518 -38.487318 11.023697 20.341960 0.000000 0.000000 0.000000 0.000000 0.000000 0.000000 2.507416 -3.730044 3.713105 -1.247357 3.136875 -0.042085 -11.565717 15.949702 52.175141 0.000000 0.000000 0.000000 1.061342 -0.679341 3.581211 -0.000000 0.000000 0.000000 -46.815564 -56.726001 14.550449 0.000000 0.000000 0.000000
-36.609951 89.155496 340.679685 -1.061646 0.871802 -8.830167 0.072895 0.221334 8.802052 0.106732 0.077726 -0.042820 -5.331557 6.856882 -1.130198 0.000000 0.000000 0.000000 -0.823224 -1.601511 0.931489 2.530545 -0.820438 -0.884473 -0.869282 1.224888 0.010625 -0.000000 0.000000 0.000000 0.000000 0.000000 0.000000 0.000000 0.000000 0.000000 2.662848 -5.021119 1.268855 -3.138933 1.601578 -1.856338 32.800313 -11.558749 -16.821786 -44.542942 8.878105 25.411372 0.000000 0.000000 0.000000 0.000000 0.000000 0.000000 3.198660 -4.418474 9.009565 -1.412087 3.987737 -0.024916 -11.927579 17.113968 57.035450 0.000000 0.000000 0.000000 1.182974 -0.698346 8.845454 -0.000000 0.000000 0.000000 -36.469509 -57.177002 36.725619 0.000000 0.000000 0.000000
-35.764444 89.640938 340.783773 -1.028203 0.932440 -15.710239 0.014912 0.248063 15.682405 0.050119 0.133794 -0.048367 -5.219744 5.894397 -1.141508 0.000000 0.000000 0.000000 -3.462812 -1.928488 2.148194 5.731415 -1.285870 -2.158205 -1.416088 1.692996 -0.000751 -0.000000 0.000000 0.000000 0.000000 0.000000 0.000000 0.000000 0.000000 0.000000 4.865807 -8.175610 3.119403 -7.018632 3.514055 -3.984769 38.728637 -11.293480 -22.988627 -45.875707 3.258857 28.674841 0.000000 0.000000 0.000000 0.000000 0.000000 0.000000 3.943293 -4.858795 15.909301 -1.441983 4.814173 0.005812 -12.644350 17.666664 60.040804 0.000000 0.000000 0.000000 1.438590 0.252049 15.776342 -0.425718 -0.784912 -0.053312 -27.999622 -48.224973 47.140000 0.000000 0.000000 0.000000
-35.228600 89.946410 340.844327 -0.893570 0.928781 -20.880748 -0.046267 0.253317 20.854895 -0.024563 0.193353 -0.050988 -5.654056 5.097388 -1.230072 0.000000 0.000000 0.000000 -4.688561 -1.643525 2.600758 7.201007 -1.975804 -2.583143 -1.723534 1.908915 -0.009636 -0.000000 0.000000 0.000000 0.000000 0.000000 0.000000 0.000000 0.000000 0.000000 6.096277 -10.735611 3.985439 -4.840207 5.776042 -3.574794 34.985734 -11.994225 -22.454335 -37.197635 -7.233597 27.724020 0.000000 0.000000 0.000000 0.000000 0.000000 0.000000 4.351576 -5.061594 21.078342 -1.358457 5.351675 0.034806 -13.550474 17.641920 61.139848 0.000000 0.000000 0.000000 0.991493 0.759486 20.920899 -0.304363 -1.284680 -0.030411 -29.605494 -53.024832 48.328296 0.000000 0.000000 0.000000
-35.125675 89.930312 340.854719 -0.672866 0.850555 -23.971761 -0.111836 0.231463 23.948993 -0.113972 0.244894 -0.051300 -7.731629 5.427656 -1.558655 0.000000 0.000000 0.000000 -4.643536 -0.790530 2.400049 7.115468 -2.725330 -2.273165 -1.780738 1.863702 -0.019238 -0.000000 0.000000 0.000000 0.000000 0.000000 0.000000 0.000000 0.000000 0.000000 6.194364 -12.086944 3.826047 -1.855249 5.351861 -2.822568 24.697432 -4.316313 -24.709819 -21.051728 -17.370464 25.982152 0.000000 0.000000 0.000000 0.000000 0.000000 0.000000 4.246659 -5.033543 24.138422 -1.155351 5.473276 0.056686 -13.386984 17.313546 59.611433 0.000000 0.000000 0.000000 0.341317 1.175323 23.978857 -0.116657 -1.785757 0.003932 -37.537899 -62.550868 41.184428 0.000000 0.000000 0.000000
